<?xml version="1.0" encoding="UTF-8" standalone="no"?> <svg xmlns="http://www.w3.org/2000/svg" viewBox="0 0 64 64"><defs><style>.cls-1{fill:#f37121;}</style></defs><g id="Layer_19" data-name="Layer 19"><path d="M32,10A22,22,0,1,0,54,32,22,22,0,0,0,32,10Zm0,42A20,20,0,1,1,52,32,20,20,0,0,1,32,52Z"/><path d="M32,3A29,29,0,1,0,61,32,29,29,0,0,0,32,3Zm0,56A27,27,0,1,1,59,32,27,27,0,0,1,32,59Z"/><path class="cls-1" d="M28.05,44.69a4.42,4.42,0,0,1-3.17-1.31h0L18.49,37a4.48,4.48,0,1,1,6.34-6.34l3.22,3.22L39.17,22.74a4.48,4.48,0,1,1,6.34,6.34L31.22,43.38A4.44,4.44,0,0,1,28.05,44.69ZM21.66,31.33a2.48,2.48,0,0,0-1.76,4.24L26.29,42h0a2.56,2.56,0,0,0,3.51,0l14.3-14.3a2.48,2.48,0,0,0,0-3.51,2.54,2.54,0,0,0-3.51,0L28.75,36a1,1,0,0,1-1.41,0l-3.93-3.93A2.46,2.46,0,0,0,21.66,31.33Z"/></g></svg>